<?xml version="1.0" standalone="no"?>
<!DOCTYPE svg PUBLIC "-//W3C//DTD SVG 20010904//EN"
 "http://www.w3.org/TR/2001/REC-SVG-20010904/DTD/svg10.dtd">
<svg version="1.0" xmlns="http://www.w3.org/2000/svg"
 width="565.000000pt" height="442.000000pt" viewBox="0 0 565.000000 442.000000"
 preserveAspectRatio="xMidYMid meet">
<metadata>
Created by potrace 1.16, written by Peter Selinger 2001-2019
</metadata>
<g transform="translate(0.000000,442.000000) scale(0.100000,-0.100000)"
fill="#000000" stroke="none">
<path d="M2407 3383 c-4 -3 -6 -25 -6 -47 l2 -41 6 40 6 40 520 0 c519 0 520
0 584 -23 202 -73 321 -239 321 -449 0 -213 -148 -398 -362 -448 -51 -12 -154
-15 -540 -15 -458 0 -478 -1 -487 -19 -11 -19 -17 -688 -7 -699 9 -9 112 16
161 39 74 35 160 120 197 197 33 66 33 67 36 244 3 146 6 178 18 178 11 0 14
-26 14 -143 0 -211 -26 -292 -128 -399 -50 -53 -132 -103 -183 -113 -11 -2
-22 -6 -27 -8 -4 -3 -30 -8 -58 -11 l-51 -7 -6 173 c-4 95 -7 269 -7 386 l0
212 370 0 c402 0 440 4 534 53 110 58 209 189 223 296 10 73 21 71 -346 71
-179 0 -355 5 -391 10 -176 28 -324 163 -375 343 l-15 52 4 -44 c6 -62 62
-167 121 -226 48 -48 140 -104 208 -128 20 -7 172 -13 407 -16 l375 -6 -1 -41
c0 -23 -14 -69 -32 -107 -61 -130 -185 -219 -334 -238 -40 -6 -226 -9 -413 -7
l-340 3 -3 -394 c-1 -226 2 -399 7 -404 5 -5 38 -4 82 2 204 32 357 185 388
388 13 85 14 292 2 311 -5 8 -17 12 -27 10 -17 -3 -19 -17 -25 -173 -6 -175
-10 -199 -49 -274 -49 -96 -179 -190 -287 -207 l-43 -7 0 330 c0 248 3 333 13
346 11 15 60 17 517 19 498 3 506 3 561 26 80 32 156 88 210 155 66 82 91 151
97 268 5 107 -10 178 -55 261 -35 64 -140 163 -205 193 -118 54 -133 55 -673
55 -276 0 -505 -3 -508 -7z"/>
<path d="M2440 3336 c0 -24 27 -121 46 -164 29 -65 111 -153 180 -193 91 -51
153 -59 509 -58 176 1 331 5 344 10 22 9 23 13 18 59 -9 71 -69 181 -130 235
-27 25 -79 60 -116 78 l-66 32 -392 3 c-216 2 -393 1 -393 -2z m768 -16 c75
-18 135 -52 198 -115 69 -69 117 -157 118 -219 l1 -41 -380 0 -380 0 -70 34
c-122 61 -214 181 -231 304 l-7 47 354 0 c197 0 373 -5 397 -10z"/>
<path d="M3310 3337 c0 -3 19 -16 43 -30 23 -14 68 -52 100 -86 133 -139 162
-341 75 -518 -37 -75 -114 -158 -181 -193 -26 -14 -47 -28 -47 -32 0 -11 87
-10 153 2 119 22 222 91 287 191 142 220 60 509 -178 626 -64 32 -85 37 -163
41 -49 3 -89 2 -89 -1z m193 -27 c166 -51 281 -198 294 -375 17 -224 -158
-428 -380 -443 l-72 -4 40 29 c53 40 116 109 148 164 116 201 51 476 -147 621
l-39 28 45 0 c25 0 75 -9 111 -20z"/>
<path d="M2370 1363 c-24 -65 -50 -128 -58 -140 -12 -20 -12 -24 1 -29 8 -3
28 -4 44 -2 22 2 28 8 29 28 1 43 14 70 34 70 14 0 21 -10 25 -37 4 -21 8 -44
10 -50 5 -14 81 -18 89 -5 2 4 -8 35 -24 67 -16 33 -41 95 -56 138 -14 42 -31
77 -38 77 -7 0 -32 -52 -56 -117z m105 -23 c20 -58 41 -109 46 -115 17 -18 9
-26 -23 -23 -21 2 -33 8 -33 18 -1 40 -18 80 -37 86 -27 8 -46 -16 -55 -68 -5
-32 -10 -38 -29 -38 -25 0 -30 9 -16 25 5 6 22 46 37 90 43 122 56 148 64 139
5 -5 25 -56 46 -114z"/>
<path d="M2923 1450 c-59 -36 -53 -110 12 -138 51 -22 60 -29 63 -46 5 -21
-53 -23 -62 -1 -3 8 -15 15 -26 15 -17 0 -20 -6 -20 -39 0 -44 12 -51 88 -51
55 0 92 33 92 83 0 39 -26 67 -83 91 -23 9 -37 21 -35 28 7 20 40 22 54 3 19
-26 44 -11 44 25 0 50 -68 66 -127 30z m117 -26 c0 -26 -10 -30 -27 -13 -6 6
-23 9 -39 7 -21 -2 -30 -9 -32 -26 -3 -18 5 -26 44 -42 53 -23 73 -44 74 -78
0 -34 -43 -72 -82 -72 -60 0 -78 10 -78 41 0 34 10 37 28 9 16 -26 68 -27 81
-1 14 25 -3 45 -59 73 -38 20 -45 28 -48 56 -6 57 35 83 111 73 21 -2 27 -9
27 -27z"/>
<path d="M3855 1457 c-52 -24 -85 -72 -85 -123 0 -90 55 -144 147 -144 76 0
83 5 83 57 0 24 5 54 11 65 13 24 5 33 -36 41 -45 8 -63 -5 -46 -36 16 -31 11
-71 -10 -75 -9 -2 -30 9 -48 23 -58 49 -33 145 38 145 18 0 34 -8 43 -22 21
-32 48 -18 48 26 0 19 -4 38 -10 41 -22 14 -106 15 -135 2z m125 -37 c0 -32
-14 -40 -24 -15 -9 24 -78 19 -104 -7 -61 -66 -16 -168 75 -168 25 0 25 1 21
55 -5 54 -4 55 22 55 26 0 26 0 22 -62 -3 -35 -10 -66 -16 -70 -6 -4 -35 -8
-64 -8 -45 0 -57 4 -88 33 -43 39 -55 96 -30 148 23 49 60 68 129 69 57 0 57
0 57 -30z"/>
<path d="M1194 1449 c-3 -6 -1 -16 5 -22 15 -15 15 -189 -1 -205 -25 -25 44
-52 76 -29 15 11 17 17 7 35 -23 42 -14 68 29 85 61 24 78 80 35 122 -20 21
-34 25 -84 25 -33 0 -63 -5 -67 -11z m142 -24 c39 -39 20 -85 -43 -106 l-36
-11 6 -54 c5 -53 5 -54 -21 -54 l-27 0 0 125 0 125 48 0 c38 0 53 -5 73 -25z"/>
<path d="M1496 1328 l2 -133 41 -3 41 -3 -5 43 c-5 37 -4 40 7 24 29 -45 58
-66 88 -66 23 0 30 4 30 20 0 10 -6 23 -13 27 -7 4 -23 22 -35 40 l-22 32 20
33 c26 43 25 64 -5 93 -20 21 -34 25 -87 25 l-63 0 1 -132z m132 106 c30 -20
30 -77 1 -97 l-21 -15 27 -43 c15 -24 34 -50 43 -56 21 -17 9 -27 -23 -19 -17
4 -37 24 -57 56 -17 28 -33 50 -36 50 -2 0 -2 -25 0 -55 l5 -55 -31 0 -31 0 0
125 0 125 50 0 c30 0 60 -6 73 -16z"/>
<path d="M1815 1450 c-4 -6 -2 -17 5 -25 11 -13 11 -181 0 -214 -6 -17 58 -37
72 -23 6 6 10 68 10 139 l0 128 -40 3 c-22 2 -43 -2 -47 -8z"/>
<path d="M2020 1441 c0 -12 4 -21 10 -21 5 0 23 -24 40 -52 28 -48 31 -59 26
-115 -5 -60 -4 -63 18 -69 13 -3 33 -1 43 5 17 8 19 18 15 69 -4 52 0 67 24
111 16 28 32 51 37 51 4 0 7 9 7 21 0 18 -5 20 -42 17 -34 -2 -42 -7 -40 -20
2 -10 -2 -28 -9 -39 -10 -19 -13 -20 -20 -7 -5 9 -10 26 -12 39 -3 21 -10 24
-50 27 -42 3 -47 1 -47 -17z m80 -8 c0 -10 9 -31 19 -47 l19 -29 21 34 c12 19
21 40 21 47 0 6 11 12 25 12 14 0 25 -2 25 -4 0 -2 -16 -28 -36 -58 -33 -50
-35 -57 -32 -120 l4 -68 -32 0 -31 0 5 49 c6 64 0 85 -42 149 l-35 52 35 0
c26 0 34 -4 34 -17z"/>
<path d="M3195 1450 c-4 -6 -2 -17 5 -25 11 -13 10 -154 -1 -210 -4 -18 1 -20
41 -20 39 0 45 3 42 20 -2 22 -2 175 1 215 2 23 -2 25 -40 28 -22 2 -44 -2
-48 -8z"/>
<path d="M3415 1450 c-4 -6 -2 -17 5 -25 11 -13 10 -154 -1 -210 -3 -17 1 -20
36 -20 31 0 39 4 36 15 -2 8 -6 39 -9 69 -6 65 4 62 46 -13 39 -68 57 -85 81
-79 18 5 20 16 24 117 2 61 6 120 8 131 3 17 -1 20 -36 20 l-40 0 3 -57 c2
-32 2 -58 -1 -58 -2 0 -21 27 -41 60 -34 54 -40 60 -71 60 -19 0 -37 -5 -40
-10z m112 -80 c26 -44 52 -80 57 -80 4 0 6 36 4 80 -3 78 -3 80 20 80 18 0 23
-4 18 -16 -3 -9 -6 -65 -6 -125 0 -140 -13 -145 -85 -29 -28 44 -54 80 -59 80
-5 0 -6 -36 -4 -80 4 -76 4 -80 -16 -80 -20 0 -21 5 -21 125 0 122 1 125 22
125 16 0 33 -19 70 -80z"/>
<path d="M4140 1446 c0 -8 5 -18 11 -22 8 -5 10 -42 7 -120 l-5 -114 43 0 c44
0 56 14 33 37 -6 6 -9 26 -7 44 3 30 7 34 37 37 l33 3 -4 -43 c-3 -24 -8 -50
-12 -60 -10 -21 18 -31 58 -20 l28 8 2 132 1 132 -43 0 -43 0 7 -50 7 -50 -37
0 c-33 0 -36 2 -36 29 0 17 5 33 10 36 6 3 10 13 10 21 0 10 -13 14 -50 14
-37 0 -50 -4 -50 -14z m72 -46 l-5 -50 48 0 48 0 -5 50 -5 50 31 0 31 0 0
-125 0 -125 -31 0 -30 0 4 60 4 60 -47 0 -47 0 4 -60 c4 -59 4 -60 -21 -60
l-26 0 0 125 0 125 26 0 c25 0 26 -2 21 -50z"/>
</g>
</svg>
