<svg version="1.1" id="Layer_1" xmlns="http://www.w3.org/2000/svg" xmlns:xlink="http://www.w3.org/1999/xlink" x="0px" y="0px"
	 width="100%" viewBox="0 0 565 442" enable-background="new 0 0 565 442" xml:space="preserve">
<path fill="#010000" opacity="1.000000" stroke="none" 
	d="
M378.000000,443.000000 
	C253.500031,443.000000 129.500046,442.980316 5.500175,443.094299 
	C1.750810,443.097748 0.903035,442.249695 0.905920,438.500031 
	C1.016943,294.166779 1.016927,149.833481 0.905973,5.500267 
	C0.903091,1.751270 1.750041,0.904107 5.499857,0.906271 
	C190.833099,1.013218 376.166412,1.013200 561.499634,0.906365 
	C565.248169,0.904204 566.097046,1.749484 566.094177,5.499742 
	C565.983093,149.832962 565.983093,294.166260 566.093994,438.499512 
	C566.096924,442.247925 565.251831,443.104645 561.500183,443.096283 
	C500.500366,442.960327 439.500153,443.000000 378.000000,443.000000 
z"/>
<path fill="#CFA158" opacity="1.000000" stroke="none" 
	d="
M241.917236,230.224518 
	C241.836731,228.575806 241.789642,227.339508 241.822693,225.739441 
	C241.798508,225.082062 241.694183,224.788467 241.740234,224.052368 
	C241.822601,218.484375 241.754593,213.358902 241.762436,207.794296 
	C241.587982,206.765823 241.492477,206.152374 241.691925,205.064575 
	C241.780396,203.711884 241.728882,202.809464 241.752777,201.574341 
	C241.591034,200.726288 241.494797,200.185837 241.684631,199.229095 
	C241.928528,197.919907 242.027222,197.001892 242.427490,195.892914 
	C243.691315,195.485413 244.674133,195.448288 246.129761,195.479004 
	C247.075516,195.545364 247.543365,195.499420 248.231110,195.545410 
	C249.724060,195.606171 250.991714,195.429825 252.649597,195.531342 
	C259.046631,195.521896 265.062439,195.477127 271.541595,195.502258 
	C273.459106,195.396530 274.920074,195.561829 276.684509,195.537598 
	C277.443298,195.547852 277.893799,195.505737 278.679047,195.527863 
	C279.455048,195.512253 279.900024,195.479279 280.680511,195.532944 
	C283.709778,195.532623 286.406738,195.486374 289.549133,195.505493 
	C297.382751,195.405548 304.772003,195.550629 312.603943,195.496918 
	C313.374939,195.445602 313.702545,195.393509 314.527222,195.362732 
	C315.045471,195.155228 315.066589,194.926453 315.153625,195.035950 
	C327.111328,194.495605 336.891724,189.435776 344.960144,180.253464 
	C345.410156,179.350342 345.836609,178.854080 346.729553,178.377960 
	C347.051910,178.287430 347.109497,178.108688 347.198914,178.079987 
	C347.435608,177.530731 347.492004,176.990616 347.845520,176.306152 
	C348.222260,175.902451 348.382599,175.660477 348.713226,175.133072 
	C349.079010,174.552124 349.274536,174.256622 349.787048,173.534515 
	C350.987640,171.566086 351.475800,169.833038 352.526886,168.004822 
	C353.144012,165.943787 353.690887,164.208038 354.156525,162.450760 
	C355.838043,156.104599 354.397491,154.141830 347.827026,154.128601 
	C328.494720,154.089691 309.162109,154.173615 289.829956,154.104980 
	C269.537445,154.032944 254.930511,144.742874 245.894287,126.318481 
	C246.833359,125.126572 247.981674,125.417801 249.464294,125.305084 
	C252.354416,125.416046 253.558914,127.215286 254.824463,129.004150 
	C263.855408,141.769455 276.235107,147.820129 291.837280,147.710785 
	C309.109070,147.589737 326.382446,147.704758 343.655060,147.672546 
	C350.741913,147.659332 350.741852,147.622162 352.675995,140.723572 
	C354.644684,138.758698 355.870880,140.083801 357.489441,141.340698 
	C358.057678,141.727570 358.284180,141.886429 358.819427,142.327927 
	C359.518372,143.019272 359.875916,143.454819 360.416321,144.288177 
	C362.510620,155.565704 360.777649,165.870041 355.294678,175.940399 
	C354.784851,177.027618 354.317871,177.660172 353.558411,178.535614 
	C349.940125,182.183594 347.862823,186.640640 344.043365,189.668747 
	C341.958008,191.322067 340.002228,193.067886 337.404724,193.497589 
	C338.273346,193.426437 338.940552,193.112366 340.008179,192.941833 
	C362.448608,190.682983 376.851868,176.598221 379.532288,154.622406 
	C379.965942,151.067108 378.956940,147.701569 378.349335,144.285278 
	C377.972443,142.166245 377.317993,140.093933 377.560425,137.542694 
	C378.743408,135.295486 379.595795,133.419693 377.863922,131.396194 
	C377.063934,130.461563 376.816101,129.387589 377.797821,128.038528 
	C387.500854,142.682495 388.477386,158.234741 380.435638,173.720245 
	C372.130066,189.713821 358.419586,198.752777 340.318481,199.085434 
	C311.046600,199.623367 281.757996,199.314957 252.476852,199.226868 
	C247.680725,199.212448 245.208694,200.961426 245.366943,206.272156 
	C245.334381,206.847351 245.374161,207.056824 245.354050,207.580490 
	C245.339523,217.562805 245.384903,227.230957 245.356491,237.348328 
	C244.966904,238.701950 244.850327,239.927872 243.652802,239.965515 
	C242.018585,240.016891 242.107986,238.593323 242.046494,237.502502 
	C241.917679,235.217255 242.053787,232.924881 241.917236,230.224518 
z"/>
<path fill="#BB6533" opacity="1.000000" stroke="none" 
	d="
M241.718170,230.205048 
	C243.541504,231.994675 242.802048,234.553162 243.004211,236.963745 
	C243.106949,238.188873 243.045181,239.678986 245.059784,237.924042 
	C246.203766,246.767715 245.647049,255.765793 245.590500,264.743256 
	C245.561035,269.421692 247.366470,269.946350 251.326065,269.119568 
	C270.806885,265.051758 284.170410,248.821259 284.539062,228.391922 
	C284.665314,221.395172 284.556610,214.394196 284.560150,207.395157 
	C284.561035,205.681686 284.491699,203.813217 286.973755,203.930771 
	C289.150513,204.033890 289.092377,205.854828 288.984039,207.292358 
	C288.199432,217.702347 289.637024,228.103699 287.689484,238.593933 
	C284.154846,257.632721 264.345825,274.596771 244.926697,274.190186 
	C241.845093,274.125641 241.378296,272.583527 241.394882,270.084930 
	C241.482300,256.922852 241.506439,243.760345 241.718170,230.205048 
z"/>
<path fill="#DABD67" opacity="1.000000" stroke="none" 
	d="
M377.992676,127.438095 
	C378.217346,130.283951 380.052673,131.995728 380.871490,134.161209 
	C381.418427,135.607742 381.773285,136.773148 379.319183,136.942398 
	C376.790039,136.873734 375.838715,135.149796 375.021912,133.596054 
	C367.244659,118.801537 354.170807,112.710892 338.339569,111.077377 
	C338.010590,111.043434 337.683014,110.997124 337.354523,110.961777 
	C348.712585,116.238785 355.702332,125.076736 358.684204,137.155777 
	C359.160278,139.084106 359.568939,141.089890 357.427917,142.815887 
	C355.516388,142.858307 355.111786,141.445419 354.093872,140.217957 
	C352.230042,140.016953 351.290649,138.923248 350.112030,137.571045 
	C349.602356,136.913879 349.356842,136.508438 349.011780,135.757294 
	C344.817261,126.120331 337.874908,119.619606 328.674622,114.883850 
	C327.350250,114.027512 326.300659,113.372238 324.692322,113.200256 
	C323.941803,113.046371 323.524963,112.909340 322.816528,112.600937 
	C321.329620,111.484558 320.065247,110.773689 318.104523,111.268890 
	C317.293854,111.284508 316.827454,111.249428 316.005280,111.158157 
	C314.419037,110.919327 313.205444,111.122681 311.568726,111.273293 
	C292.688782,111.429726 274.229401,111.347549 255.345383,111.347481 
	C253.860443,111.455276 252.797974,111.454628 251.378235,111.468246 
	C249.350220,111.405258 248.717468,112.039658 248.866425,113.841995 
	C249.071609,116.324257 249.691742,118.687828 250.272491,121.080162 
	C250.701797,122.848656 251.037674,124.649017 249.579987,126.553085 
	C248.409027,126.622566 247.447052,126.418907 246.205750,126.104675 
	C245.758530,125.741692 245.590652,125.489281 245.302612,124.798309 
	C243.724731,122.389839 243.633530,119.968811 242.976715,117.370132 
	C242.721527,116.764954 242.598267,116.470406 242.656281,115.892776 
	C241.083099,105.210861 241.262375,105.000336 251.844803,105.000229 
	C280.506531,104.999939 309.168488,104.937096 337.829865,105.039597 
	C346.104431,105.069191 353.968201,107.060692 361.462952,111.743660 
	C361.794067,112.095444 361.921539,112.073524 361.930786,112.137535 
	C362.140839,112.310989 362.341583,112.420441 362.804626,112.750931 
	C363.583374,113.251656 364.099854,113.531319 364.816345,114.042374 
	C366.254456,114.788322 367.653290,115.032326 368.502136,116.641273 
	C368.899963,117.230690 369.234924,117.486519 369.784607,117.980469 
	C370.169037,118.315468 370.338776,118.412354 370.672394,118.752274 
	C372.553894,120.687225 374.271515,122.379143 376.295868,124.174438 
	C376.805145,124.309242 377.007660,124.340691 376.902893,124.381088 
	C376.189880,125.692368 377.398438,126.197754 377.992676,127.438095 
z"/>
<path fill="#CFA158" opacity="1.000000" stroke="none" 
	d="
M380.146362,316.815979 
	C377.802948,311.191772 377.691864,306.063232 381.793976,301.618713 
	C386.072998,296.982544 391.432617,296.205109 397.382568,297.669952 
	C399.116302,298.096802 400.117981,298.749695 400.032043,300.594788 
	C399.979614,301.720062 400.415222,303.076050 399.225464,303.801453 
	C397.561890,304.815613 397.054810,303.119537 396.067047,302.337860 
	C392.585266,299.582611 386.708435,301.306213 384.819336,305.733734 
	C383.107727,309.745270 383.605927,313.606934 386.781769,316.784424 
	C388.717010,318.720673 391.287994,320.482300 393.894562,319.220520 
	C396.625458,317.898529 395.094971,314.769501 395.175690,312.420959 
	C395.218506,311.175232 392.862854,309.591858 395.293671,308.769196 
	C396.920410,308.218628 399.067871,308.214294 400.667633,308.810211 
	C403.033691,309.691620 400.850891,311.230011 400.641602,312.497528 
	C400.533844,313.150360 400.634979,313.842804 400.491394,314.483673 
	C399.877808,317.222565 402.271393,321.026733 398.790405,322.601654 
	C394.965302,324.332214 390.638855,324.221527 386.603607,322.599945 
	C383.918396,321.520874 381.724731,319.756409 380.146362,316.815979 
z"/>
<path fill="#CFA158" opacity="1.000000" stroke="none" 
	d="
M299.295776,319.229553 
	C303.239807,316.466248 302.031036,314.406158 298.894073,312.745789 
	C297.287384,311.895325 295.515167,311.364136 293.856873,310.603394 
	C290.944977,309.267548 289.677216,306.884552 289.987061,303.770935 
	C290.297607,300.650604 292.103271,298.716431 295.093475,297.676056 
	C298.088928,296.633820 301.054260,296.729492 303.843506,297.931061 
	C306.279480,298.980499 305.770264,301.496643 304.860016,303.072784 
	C303.833405,304.850494 302.842255,303.181549 301.858246,302.277191 
	C299.839722,300.422058 297.387054,300.342499 295.899506,302.632446 
	C294.340057,305.033173 296.631287,306.128540 298.444763,307.013794 
	C300.084839,307.814392 301.863129,308.351318 303.448700,309.239716 
	C306.531708,310.967133 307.847992,313.702728 307.263306,317.197845 
	C306.706268,320.527740 304.554749,322.369843 301.339966,323.140350 
	C298.136810,323.908020 295.069061,323.359833 292.053131,322.286743 
	C290.170776,321.616974 290.493591,319.973297 290.514984,318.500671 
	C290.529633,317.491638 290.565521,316.376831 291.743011,316.038940 
	C293.259338,315.603912 293.628540,316.990295 294.303314,317.877289 
	C295.461792,319.400146 297.149536,319.381561 299.295776,319.229553 
z"/>
<path fill="#CFA158" opacity="1.000000" stroke="none" 
	d="
M434.783997,298.089355 
	C436.486908,297.646484 437.450562,297.781158 437.053650,299.620087 
	C435.533630,306.662201 435.810760,313.729828 436.925995,320.782562 
	C437.093781,321.843506 437.443054,322.986267 436.181305,323.182190 
	C434.407562,323.457550 432.515869,323.509125 430.762054,323.184296 
	C429.633179,322.975220 429.623993,321.675201 430.220062,320.708221 
	C431.169739,319.167694 430.685211,317.463623 430.905701,315.841858 
	C431.372284,312.409454 430.052734,311.218018 426.519196,311.208649 
	C422.984741,311.199310 422.197449,312.761627 422.479065,315.743317 
	C422.588318,316.899994 422.543335,318.072235 422.671661,319.225891 
	C422.817963,320.540924 424.787323,322.015289 422.687897,323.096619 
	C421.048615,323.940948 418.985626,323.796814 417.323181,323.151031 
	C415.100922,322.287750 416.981384,320.662231 417.048767,319.350800 
	C417.371887,313.062317 417.801849,306.760773 416.775360,300.504242 
	C416.615723,299.531006 415.818359,298.386475 417.013184,297.968323 
	C418.890442,297.311249 421.007843,297.272217 422.862762,298.041504 
	C424.062561,298.539093 423.199554,299.676086 422.997894,300.626740 
	C422.502014,302.964111 421.255859,306.092407 423.865570,307.270996 
	C425.726074,308.111267 429.067291,309.339050 430.889648,305.522217 
	C433.083527,307.998016 431.393311,308.992035 429.835236,309.468140 
	C429.798004,309.469421 430.906189,309.647400 431.484528,308.417389 
	C431.836670,307.668518 432.310791,307.087524 433.216248,306.845795 
	C435.180817,306.321259 433.154236,305.706116 433.147034,305.127136 
	C433.117004,302.717194 432.292145,300.206299 434.783997,298.089355 
z"/>
<path fill="#CFA158" opacity="1.000000" stroke="none" 
	d="
M136.738647,306.103271 
	C135.816376,308.563263 134.400452,310.487213 132.234100,310.876373 
	C126.675186,311.874908 127.352921,315.661682 127.940247,319.503082 
	C128.124084,320.705444 129.705887,322.113281 128.069016,323.014618 
	C126.309586,323.983429 124.028328,323.903137 122.261398,323.101990 
	C120.108727,322.125977 122.282509,320.592346 122.295921,319.301270 
	C122.361214,313.016968 123.176163,306.702759 121.885330,300.461304 
	C121.681213,299.474365 120.987129,298.119965 122.180489,297.952271 
	C125.950020,297.422607 129.831772,297.033539 133.451340,298.706909 
	C136.432632,300.085236 137.276184,302.664490 136.738647,306.103271 
z"/>
<path fill="#CFA158" opacity="1.000000" stroke="none" 
	d="
M211.778412,313.242462 
	C211.008606,308.379395 207.967087,305.132660 205.868988,301.399323 
	C205.250000,300.297913 202.714111,299.063263 204.838364,298.096191 
	C206.642181,297.274994 209.744644,296.236115 211.329178,299.240753 
	C212.418533,301.306458 212.047607,305.150421 214.670334,305.072906 
	C216.700134,305.012878 217.549850,301.641144 218.229538,299.127747 
	C218.929901,296.537872 221.815887,297.241150 223.306549,298.007721 
	C225.681549,299.229126 223.198227,300.411926 222.535919,301.404205 
	C218.579544,307.331696 215.115387,313.339722 217.854568,320.858002 
	C218.245361,321.930603 218.247116,323.054810 216.992432,323.202484 
	C215.207397,323.412567 213.321274,323.433197 211.575623,323.068756 
	C210.449387,322.833588 210.513107,321.539978 211.037552,320.553741 
	C212.205521,318.357361 211.672653,315.987671 211.778412,313.242462 
z"/>
<path fill="#CFA158" opacity="1.000000" stroke="none" 
	d="
M245.953094,315.564331 
	C245.728836,314.915436 245.562485,314.600403 244.954880,313.614227 
	C238.967072,312.560974 239.281403,317.025177 238.717010,320.376221 
	C238.462509,321.887360 238.804489,323.526947 236.997055,323.863342 
	C235.669525,324.110474 234.010590,324.638428 232.866760,323.123291 
	C231.524567,321.345337 233.447495,320.514191 233.939255,319.249084 
	C236.286850,313.209564 238.519119,307.124603 240.918961,301.106262 
	C241.569962,299.473663 241.682953,297.504822 244.112656,295.726593 
	C246.519897,302.476105 248.822311,308.931763 251.083862,315.801941 
	C251.354095,316.421570 251.485779,316.713562 251.320801,317.300171 
	C251.626617,318.240417 252.073380,318.961487 252.782761,320.031799 
	C253.672867,320.971161 253.856262,321.695251 253.502609,322.870422 
	C251.744675,323.265900 250.176193,323.315247 248.161499,323.209839 
	C246.506500,320.821991 247.217972,318.131683 245.953094,315.564331 
z"/>
<path fill="#CFA158" opacity="1.000000" stroke="none" 
	d="
M157.609131,315.942261 
	C157.344330,317.309570 157.257629,318.306763 157.347366,319.287750 
	C157.468628,320.613037 159.313904,322.320526 157.157532,323.105927 
	C155.558594,323.688263 153.393768,323.704926 151.811264,323.103973 
	C149.642365,322.280273 151.676224,320.585785 151.719879,319.267242 
	C151.923233,313.127411 152.506760,306.921692 151.379257,300.885010 
	C150.854385,298.074951 151.529648,297.631927 153.824036,297.651917 
	C155.487823,297.666382 157.152359,297.695251 158.815475,297.662659 
	C162.009354,297.600098 164.885651,298.336487 166.324860,301.477753 
	C167.744766,304.576904 166.904373,307.403748 164.325699,309.543182 
	C162.608200,310.968201 163.248062,312.276154 163.840225,313.928894 
	C164.678772,316.269348 166.840668,317.422089 168.137756,319.327759 
	C168.895370,320.440857 171.179871,321.041107 169.712402,322.822144 
	C168.616562,324.152100 166.900970,323.246399 165.496994,322.829315 
	C163.598480,322.265289 162.721832,320.579956 161.573044,319.158081 
	C160.495178,317.823975 160.203018,315.612671 157.609131,315.942261 
z"/>
<path fill="#CFA158" opacity="1.000000" stroke="none" 
	d="
M361.544495,111.895157 
	C349.881561,105.743668 336.986206,105.815125 323.968079,105.937790 
	C299.881989,106.164734 275.792206,105.996902 251.703949,105.996521 
	C243.058243,105.996384 243.058243,106.000366 242.797852,115.171127 
	C242.637543,115.514778 242.508957,115.381538 242.474106,115.227127 
	C240.181473,105.068428 240.344284,104.848114 250.513840,104.846436 
	C279.129639,104.841736 307.745483,104.827202 336.361267,104.859818 
	C345.275879,104.869972 353.788940,106.480095 361.544495,111.895157 
z"/>
<path fill="#CFA158" opacity="1.000000" stroke="none" 
	d="
M190.770905,299.346100 
	C188.873901,306.549042 189.861374,313.446472 190.517685,320.320801 
	C190.630569,321.503113 191.293732,322.808014 189.781448,323.190430 
	C187.892120,323.668091 185.802460,323.925049 183.994492,322.936157 
	C182.872589,322.322479 183.695953,321.272308 183.925278,320.317047 
	C185.374176,314.281738 184.244263,308.141754 184.560623,302.056915 
	C184.632858,300.667328 182.226624,299.051331 184.205460,298.186279 
	C186.240250,297.296722 188.906311,296.543854 190.770905,299.346100 
z"/>
<path fill="#CFA158" opacity="1.000000" stroke="none" 
	d="
M355.653900,308.352356 
	C356.406830,309.462372 356.994293,310.329742 357.747803,311.553894 
	C362.135773,309.371002 359.402954,305.526154 359.543243,302.295074 
	C359.601685,300.948914 359.126160,299.622467 360.557037,298.961945 
	C362.355804,298.131531 363.301514,299.133240 363.532898,301.233154 
	C363.463654,304.593353 363.491211,307.612091 363.447998,311.132477 
	C363.622162,313.386719 363.454407,315.148010 363.448792,317.232544 
	C363.451660,318.462585 363.494781,319.365082 363.468689,320.715240 
	C362.460236,323.103638 360.899658,323.231079 358.823303,322.392334 
	C357.513458,320.595795 356.472748,319.045624 355.278870,317.120239 
	C354.731232,316.539948 354.465912,316.222778 354.226807,315.497986 
	C352.948425,313.513367 351.755829,311.839111 350.316711,309.874573 
	C349.912720,309.413177 349.755188,309.242035 349.512573,308.731476 
	C349.538086,306.985260 349.466827,305.509857 351.187683,304.443481 
	C351.989471,304.236542 352.454407,304.279114 353.170654,304.680237 
	C353.601471,305.097931 353.768250,305.279327 354.076538,305.802185 
	C354.761505,306.721497 355.120300,307.418640 355.653900,308.352356 
z"/>
<path fill="#CFA158" opacity="1.000000" stroke="none" 
	d="
M327.779053,317.926575 
	C328.609467,320.991089 330.182220,323.990509 325.052979,323.492645 
	C322.633057,323.257782 320.003601,323.566162 322.106628,319.749573 
	C322.612091,318.832184 322.408386,317.524048 322.597015,315.962402 
	C322.340149,313.649475 322.552521,311.756500 322.590271,309.521301 
	C322.618408,308.038635 322.579132,306.904205 322.605530,305.081848 
	C323.120270,302.111023 321.173492,300.464417 321.370850,298.106140 
	C322.246094,297.817078 322.811279,297.752625 323.802216,297.732544 
	C324.568817,297.592255 324.932678,297.512726 325.581238,297.652283 
	C326.460388,297.851868 327.077820,297.937500 327.931091,298.766235 
	C328.044159,300.137024 327.921356,300.764709 327.688660,301.860718 
	C327.406067,306.489960 327.538452,310.652618 327.534363,315.203674 
	C327.613312,316.224976 327.665100,316.856934 327.779053,317.926575 
z"/>
<path fill="#CFA158" opacity="1.000000" stroke="none" 
	d="
M222.762482,344.434326 
	C219.880249,345.605774 217.268005,342.813904 214.466751,344.754730 
	C213.826263,345.198456 213.105988,343.529144 213.202179,342.517914 
	C213.446045,339.953735 212.034134,337.086212 214.050613,334.893707 
	C214.980377,333.882812 216.530151,334.366638 217.586761,335.448944 
	C217.925308,335.795685 218.273956,336.359711 218.657745,336.395264 
	C220.209518,336.539093 221.360672,332.591522 222.888382,335.422729 
	C224.273483,337.989563 223.540695,341.225616 222.762482,344.434326 
z"/>
<path fill="#CFA158" opacity="1.000000" stroke="none" 
	d="
M415.864197,339.125916 
	C415.833679,335.291595 416.390991,332.709106 420.538879,335.667816 
	C421.035950,336.022369 421.453308,336.877991 422.076660,336.255615 
	C423.240479,335.093597 424.707062,333.111938 425.714661,335.640961 
	C426.773315,338.298096 426.793365,341.576202 425.451019,344.265533 
	C424.653992,345.862244 422.882416,345.079742 421.566498,344.186279 
	C421.187439,343.928925 420.549133,343.523712 420.312286,343.663818 
	C414.035278,347.378540 416.523926,341.762268 415.864197,339.125916 
z"/>
<path fill="#CFA158" opacity="1.000000" stroke="none" 
	d="
M95.480766,334.992615 
	C98.343750,334.160522 101.131760,333.671661 103.208389,335.785736 
	C105.745125,338.368256 101.864494,341.356598 103.314400,344.265686 
	C103.604965,344.848694 102.191994,345.085022 101.331841,344.967468 
	C100.292786,344.825409 99.752922,343.338776 98.246140,344.250092 
	C95.279282,346.044464 94.885765,343.935181 94.926651,341.664856 
	C94.965225,339.522644 95.140053,337.382904 95.480766,334.992615 
z"/>
<path fill="#CFA158" opacity="1.000000" stroke="none" 
	d="
M446.649902,339.427002 
	C447.336365,342.260651 447.559509,344.372864 444.090424,345.028748 
	C441.246094,345.566498 439.013184,344.867523 438.124634,342.156342 
	C437.106293,339.049042 437.884430,336.222809 441.154419,334.725555 
	C443.664825,333.576111 446.062042,333.973328 447.808868,336.160156 
	C448.797394,337.397736 447.211060,338.151001 446.649902,339.427002 
z"/>
<path fill="#DABD67" opacity="1.000000" stroke="none" 
	d="
M352.247864,304.633728 
	C350.684723,305.917053 351.824158,307.684052 350.569092,308.832031 
	C349.782684,308.860626 349.235138,308.889893 348.557251,309.454468 
	C349.004974,313.506805 347.562866,317.568939 349.545959,321.715759 
	C349.368652,322.485840 349.103973,322.763763 348.507416,323.093414 
	C347.339203,323.231537 346.442078,323.261292 345.100464,323.221222 
	C344.073914,322.889984 343.708130,322.447357 343.580566,321.532043 
	C343.931885,320.406006 344.252625,319.578735 344.650635,317.965027 
	C344.690369,313.016296 344.652802,308.854004 344.662598,303.909241 
	C344.679260,302.670837 344.648560,302.214874 344.621155,301.415955 
	C346.061035,297.272095 347.917999,296.709595 350.133270,299.570068 
	C351.193420,300.938965 352.588348,302.279388 352.247864,304.633728 
z"/>
<path fill="#CFA158" opacity="1.000000" stroke="none" 
	d="
M158.057800,335.976532 
	C159.835968,333.468872 162.165390,334.670685 164.204727,334.479462 
	C165.736588,334.335846 166.601501,335.526581 165.764435,336.663177 
	C164.697540,338.111847 164.979294,339.654297 165.176514,340.921295 
	C165.545181,343.289734 166.764938,345.346710 162.651108,345.263123 
	C159.405045,345.197235 157.467514,344.586090 157.909393,340.847931 
	C158.084152,339.369659 157.955246,337.855469 158.057800,335.976532 
z"/>
<path fill="#CFA158" opacity="1.000000" stroke="none" 
	d="
M140.685120,345.149628 
	C135.368988,345.830292 135.959854,342.242493 136.139465,339.368225 
	C136.261185,337.420654 134.931808,334.329651 139.026443,334.395203 
	C142.241531,334.446686 145.270584,334.843231 146.016983,338.526672 
	C146.784500,342.314423 144.818085,344.517761 140.685120,345.149628 
z"/>
<path fill="#CFA158" opacity="1.000000" stroke="none" 
	d="
M178.058945,342.809998 
	C178.028214,341.128601 177.987625,339.805817 178.003876,338.483704 
	C178.021698,337.033661 177.586151,335.086212 179.416519,334.680450 
	C181.295334,334.264008 183.574753,334.057556 185.263306,334.759186 
	C187.716736,335.778717 185.114594,337.533905 185.008179,338.946198 
	C184.787842,341.870911 181.003937,342.269775 179.843430,344.886383 
	C179.601746,345.431335 178.263763,344.247742 178.058945,342.809998 
z"/>
<path fill="#CFA158" opacity="1.000000" stroke="none" 
	d="
M349.272736,337.444092 
	C349.892639,332.119507 353.736176,334.541138 355.859619,334.656158 
	C358.994080,334.825897 356.504852,336.906006 356.412537,338.246979 
	C356.304840,339.811127 355.745758,341.332397 356.782104,343.019226 
	C357.984894,344.977051 356.084381,344.959076 354.482605,345.043610 
	C348.819550,344.739044 348.819550,344.739044 349.272736,337.444092 
z"/>
<path fill="#CFA158" opacity="1.000000" stroke="none" 
	d="
M283.315186,344.119293 
	C282.599762,344.615234 282.148926,344.811554 281.320190,344.960693 
	C280.787476,345.078918 280.632660,345.244324 280.245850,345.161377 
	C279.314453,345.003571 278.615021,345.094086 277.567810,345.114990 
	C276.819305,345.326569 276.373566,345.433380 275.730286,345.070679 
	C272.844757,343.662109 271.408417,341.754883 271.829407,338.725739 
	C272.217194,335.935150 274.230957,335.168915 276.965576,334.946808 
	C277.560730,334.630768 277.912506,334.490295 278.580322,334.701691 
	C279.109558,334.912964 279.393005,334.948181 279.970032,335.295410 
	C281.728516,335.428314 282.660278,335.834076 281.907745,337.475861 
	C281.450653,338.473022 281.869537,338.985565 282.768860,339.738525 
	C282.999268,339.950867 283.050385,339.951233 283.049194,339.976776 
	C283.737030,341.203491 283.968109,342.468445 283.315186,344.119293 
z"/>
<path fill="#BB6533" opacity="1.000000" stroke="none" 
	d="
M254.617767,336.263733 
	C256.750854,336.360352 259.159088,330.563354 260.324219,336.777161 
	C258.257721,337.890472 259.576202,339.367279 259.863525,340.824280 
	C261.166901,344.740997 259.964386,346.122070 256.172211,344.749786 
	C255.874908,344.642212 255.664993,344.312866 255.375488,344.160889 
	C253.631073,343.245178 251.648682,347.251984 250.403061,344.353119 
	C249.185593,341.519745 249.395554,338.226440 250.629181,335.037140 
	C252.503403,334.369049 252.062897,338.523163 254.617767,336.263733 
z"/>
<path fill="#BB6533" opacity="1.000000" stroke="none" 
	d="
M316.822266,335.504517 
	C317.938385,337.990387 316.462341,340.660187 317.680664,343.494293 
	C318.572083,345.568146 315.919098,345.459595 314.655090,345.300842 
	C312.713348,345.057007 309.565094,346.912567 309.335205,342.950470 
	C309.193329,340.505280 309.376434,338.041229 309.646942,335.451782 
	C312.014343,336.935425 314.272217,336.139832 316.822266,335.504517 
z"/>
<path fill="#BB6533" opacity="1.000000" stroke="none" 
	d="
M123.427788,336.697144 
	C123.609505,338.281982 123.454575,339.590332 123.635536,340.850494 
	C123.923981,342.859131 125.887711,345.368164 121.600601,345.425323 
	C118.276016,345.469666 115.060654,345.703003 116.192703,340.432800 
	C118.645226,338.858917 118.839828,333.720734 123.427788,336.697144 
z"/>
<path fill="#CFA158" opacity="1.000000" stroke="none" 
	d="
M460.432343,341.247681 
	C460.441925,339.223724 460.431519,337.439636 460.597382,335.304688 
	C461.971588,334.783722 463.169586,334.613586 464.824036,334.512451 
	C467.817505,333.814240 469.321716,334.389740 468.124847,337.277710 
	C467.424805,338.966797 467.866333,340.690216 467.536011,342.624512 
	C467.712830,342.922516 467.970978,342.980530 468.029236,343.099304 
	C468.175659,343.448334 468.263855,343.678558 468.181458,344.236877 
	C466.717896,345.416718 465.270355,345.067657 463.451477,345.030396 
	C462.164642,345.784637 461.397675,345.507721 460.663086,344.403625 
	C460.562988,343.596008 460.474213,343.133820 460.432800,342.317932 
	C460.480103,341.964233 460.412384,341.487579 460.432343,341.247681 
z"/>
<path fill="#CFA158" opacity="1.000000" stroke="none" 
	d="
M238.307343,343.629272 
	C236.775085,345.680420 235.348511,345.331238 235.152267,343.312469 
	C234.886887,340.582642 234.208771,337.691010 235.643204,335.056427 
	C235.827026,334.718781 237.096115,334.502075 237.368744,334.757111 
	C239.533127,336.781677 238.042465,339.442871 238.422745,341.801544 
	C238.500732,342.285248 238.407104,342.796600 238.307343,343.629272 
z"/>
<path fill="#CFA158" opacity="1.000000" stroke="none" 
	d="
M201.431686,340.642334 
	C201.121140,342.476654 202.114975,344.946381 199.607132,344.831299 
	C197.220856,344.721741 198.255585,342.313995 198.000183,340.834808 
	C197.972534,340.674652 197.952347,340.493713 197.997925,340.343414 
	C198.583298,338.412628 196.393280,334.774017 199.911606,334.849701 
	C202.709457,334.909851 200.985275,338.358917 201.431686,340.642334 
z"/>
<path fill="#BB6533" opacity="1.000000" stroke="none" 
	d="
M363.669922,301.419861 
	C362.734406,300.816772 363.138184,299.006744 361.439880,299.241882 
	C359.773926,299.472473 360.208649,300.878204 360.234894,301.955994 
	C360.302277,304.723328 360.545685,307.494141 360.448029,310.253967 
	C360.407928,311.385956 360.849823,313.734436 358.043457,312.193176 
	C360.486298,308.329224 359.290497,304.480469 358.588684,300.721649 
	C358.378723,299.597046 357.495575,298.381195 358.977173,297.798248 
	C360.661652,297.135529 362.653503,297.026031 364.229980,297.932861 
	C366.032837,298.970001 364.267120,300.158325 363.669922,301.419861 
z"/>
<path fill="#DABD67" opacity="1.000000" stroke="none" 
	d="
M435.056183,297.913757 
	C435.100830,303.018158 435.100830,308.084595 435.100830,313.151062 
	C434.800018,313.158264 434.499176,313.165466 434.198364,313.172668 
	C434.053711,311.601562 433.909088,310.030457 433.704498,307.808197 
	C430.750610,310.294952 427.784180,310.260620 424.344940,309.688232 
	C426.732086,308.044708 430.982117,310.592896 431.062927,305.478088 
	C430.961456,304.614655 430.916351,304.139984 430.937256,303.312958 
	C429.821442,299.913818 429.166290,297.165161 434.492676,297.756042 
	C434.924042,297.953827 435.011536,297.875793 435.056183,297.913757 
z"/>
<path fill="#BB6533" opacity="1.000000" stroke="none" 
	d="
M381.472717,340.444092 
	C381.380157,341.293976 381.294586,341.807526 381.298950,342.705566 
	C381.388855,343.090057 381.410126,343.496002 381.393188,343.698547 
	C381.281647,344.075653 381.187042,344.250214 381.020630,344.713867 
	C380.948822,345.002899 380.612976,345.268219 380.440002,345.394196 
	C376.894531,344.654877 372.682465,346.933258 370.114746,342.448181 
	C370.350098,340.411407 370.450439,338.660858 372.454102,337.541443 
	C375.229309,338.770050 378.243164,336.219177 380.687897,338.904175 
	C380.866089,339.192139 380.899933,339.085541 380.846008,339.070679 
	C381.202362,339.288116 381.440948,339.632629 381.472717,340.444092 
z"/>
<path fill="#CFA158" opacity="1.000000" stroke="none" 
	d="
M123.882347,336.737000 
	C120.816353,336.981659 120.816360,336.981659 121.329849,339.219971 
	C121.609978,340.441040 119.407776,340.986420 116.535088,340.234314 
	C116.616508,338.187561 114.894241,335.259399 117.852325,334.712646 
	C119.798256,334.352966 123.065796,332.496307 123.882347,336.737000 
z"/>
<path fill="#BB6533" opacity="1.000000" stroke="none" 
	d="
M335.752319,343.043304 
	C337.707062,344.769318 337.702881,344.817169 335.730682,345.332062 
	C330.867828,346.601654 329.031372,345.023682 329.512695,339.562988 
	C332.449738,339.481995 332.059998,344.219452 335.752319,343.043304 
z"/>
<path fill="#BB6533" opacity="1.000000" stroke="none" 
	d="
M352.270630,305.009460 
	C351.699066,302.939850 350.563477,301.277069 349.319427,299.751465 
	C347.587067,297.627045 346.015167,297.803925 344.793396,300.771393 
	C343.487183,300.396332 341.753937,299.309784 343.217682,298.213776 
	C345.045349,296.845306 347.833160,296.699982 349.607910,298.481537 
	C351.189056,300.068756 352.083557,302.339966 353.357880,304.612915 
	C353.434662,304.916504 352.982208,305.058899 352.982208,305.058899 
	C352.982208,305.058899 352.508118,305.042694 352.270630,305.009460 
z"/>
<path fill="#CFA158" opacity="1.000000" stroke="none" 
	d="
M316.847382,335.017212 
	C316.789764,337.025818 311.504822,336.541504 315.123657,339.945923 
	C314.749664,340.197937 314.399139,340.613007 313.997162,340.670868 
	C312.874573,340.832336 311.534424,341.040771 310.973267,339.774475 
	C310.461029,338.618469 310.345703,337.286621 309.967834,335.675110 
	C309.880219,335.317932 310.035065,334.992645 310.350189,334.854614 
	C312.628906,334.220398 314.595825,334.320923 316.847382,335.017212 
z"/>
<path fill="#BB6533" opacity="1.000000" stroke="none" 
	d="
M467.667114,342.595703 
	C464.644470,342.691467 465.397339,342.654724 465.300812,340.677460 
	C465.190826,338.424683 465.592316,336.864594 467.100647,335.408020 
	C466.645386,335.223724 466.190094,335.039398 465.507660,334.718262 
	C467.663666,333.443939 469.472229,333.903137 468.413666,336.771362 
	C467.712708,338.670532 468.198273,340.499847 467.667114,342.595703 
z"/>
<path fill="#CFA158" opacity="1.000000" stroke="none" 
	d="
M254.713516,335.775818 
	C255.420288,338.066650 255.173615,338.654968 251.743011,343.384430 
	C250.594910,340.718231 251.046021,338.157654 250.924332,335.303589 
	C252.238388,334.194244 253.435181,334.415527 254.713516,335.775818 
z"/>
<path fill="#CFA158" opacity="1.000000" stroke="none" 
	d="
M373.572052,338.363678 
	C371.626587,338.911591 372.424194,341.272583 370.365295,341.958466 
	C370.053558,342.071106 369.763062,342.026001 369.621521,342.065674 
	C369.096954,340.964203 368.413391,339.868317 369.047546,338.298676 
	C369.311493,337.751465 369.478424,337.494202 369.755798,336.790466 
	C370.279175,336.188324 370.534546,335.890320 370.887817,335.259766 
	C371.119904,335.048615 371.052063,335.035461 371.057190,335.069641 
	C371.172119,334.965027 371.281921,334.826233 371.654480,334.650146 
	C372.397827,334.520874 372.878387,334.428955 373.677002,334.147675 
	C374.439728,333.975067 374.884491,333.984589 375.663086,333.980072 
	C376.459412,334.159149 376.922089,334.343811 377.761108,334.522858 
	C378.294830,334.586609 378.452240,334.655945 378.779358,334.919617 
	C379.040192,335.302643 379.131317,335.491364 379.489868,335.845215 
	C379.344177,340.426697 375.781006,337.460785 373.572052,338.363678 
z"/>
<path fill="#BB6533" opacity="1.000000" stroke="none" 
	d="
M399.698975,335.654358 
	C402.128784,337.216003 402.169098,340.080872 403.481262,342.300232 
	C403.983032,343.148834 404.428802,344.186371 403.411011,344.908813 
	C402.329926,345.676178 401.243988,345.307678 400.257751,343.774658 
	C400.372772,342.164490 399.588715,341.535309 399.165894,340.396851 
	C399.063141,338.655548 398.337799,337.195343 399.698975,335.654358 
z"/>
<path fill="#BB6533" opacity="1.000000" stroke="none" 
	d="
M349.208313,337.458435 
	C350.847260,339.559875 348.707153,344.106750 353.918030,344.766968 
	C348.612549,345.539581 348.578400,345.491882 349.208313,337.458435 
z"/>
<path fill="#BB6533" opacity="1.000000" stroke="none" 
	d="
M312.584961,195.390182 
	C305.635651,196.713455 298.191132,196.035782 290.375183,195.727509 
	C297.361816,194.800644 304.745941,195.325607 312.584961,195.390182 
z"/>
<path fill="#CFA158" opacity="1.000000" stroke="none" 
	d="
M335.701294,342.682892 
	C332.153900,345.519745 330.736115,343.390198 329.852020,339.577667 
	C329.651154,338.750671 329.601044,338.202606 329.614960,337.245636 
	C329.678986,336.836761 329.526245,336.403503 329.600800,336.186218 
	C329.892181,334.995880 330.555145,334.609741 331.886719,334.733765 
	C333.915436,337.176727 332.112152,340.109497 334.037109,342.572021 
	C334.748047,342.686066 335.097443,342.646759 335.701294,342.682892 
z"/>
<path fill="#050402" opacity="1.000000" stroke="none" 
	d="
M373.239319,338.527954 
	C374.926544,336.085419 378.103149,340.131226 379.636017,336.372864 
	C380.703888,336.614471 380.960510,337.529114 380.890015,338.886169 
	C378.663879,338.822601 376.363037,337.938202 374.698151,340.373535 
	C374.173462,341.141022 373.650970,341.044342 373.335907,340.256592 
	C373.168152,339.837158 373.276794,339.307190 373.239319,338.527954 
z"/>
<path fill="#BB6533" opacity="1.000000" stroke="none" 
	d="
M282.858948,339.611511 
	C281.042419,339.950867 279.085602,339.950867 277.011200,339.950867 
	C277.218231,337.182953 280.215973,338.341736 280.934662,336.648254 
	C280.979828,336.541901 280.917023,336.353027 280.843903,336.242615 
	C280.756775,336.111023 280.604309,336.022705 280.371887,335.761536 
	C283.560333,335.168762 281.556732,338.280731 282.858948,339.611511 
z"/>
<path fill="#BB6533" opacity="1.000000" stroke="none" 
	d="
M400.189331,343.722168 
	C399.176483,343.900665 398.078552,343.712891 397.308197,344.130005 
	C396.008881,344.833588 394.692017,346.122498 393.408112,344.782806 
	C392.205811,343.528290 393.574890,342.060364 394.462738,340.609344 
	C396.333954,342.111542 399.091431,340.554840 400.278198,343.118134 
	C400.373474,343.437683 400.251587,343.627899 400.189331,343.722168 
z"/>
<path fill="#DABD67" opacity="1.000000" stroke="none" 
	d="
M399.944824,335.275177 
	C399.437317,336.973297 400.399567,338.147186 401.063599,339.765167 
	C399.259399,341.398224 397.385651,341.588104 395.372894,339.657227 
	C394.956512,338.287689 395.224884,337.318909 395.789734,336.064758 
	C396.396851,334.664978 397.375793,334.737152 398.968567,334.767883 
	C399.678802,334.913635 399.907257,335.124390 399.944824,335.275177 
z"/>
<path fill="#BB6533" opacity="1.000000" stroke="none" 
	d="
M334.153748,342.383850 
	C330.194061,341.492401 332.876526,338.092163 332.241211,335.314514 
	C334.430450,336.902222 332.290131,339.899902 334.153748,342.383850 
z"/>
<path fill="#BB6533" opacity="1.000000" stroke="none" 
	d="
M245.857712,315.566833 
	C247.847961,317.226135 247.993088,319.711182 247.760315,322.670715 
	C245.735367,321.028351 247.389984,318.038605 245.857712,315.566833 
z"/>
<path fill="#CFA158" opacity="1.000000" stroke="none" 
	d="
M434.626770,297.833771 
	C432.189453,298.049225 430.704498,299.262909 431.068451,302.575012 
	C430.034821,299.894806 428.727325,296.614075 434.626770,297.833771 
z"/>
<path fill="#BB6533" opacity="1.000000" stroke="none" 
	d="
M358.610901,322.426331 
	C360.020691,322.145477 361.527679,322.375153 363.110840,321.279388 
	C363.024353,325.362122 360.694794,323.570923 358.610901,322.426331 
z"/>
<path fill="#BB6533" opacity="1.000000" stroke="none" 
	d="
M327.673096,315.186096 
	C326.540405,311.414093 327.124237,307.198364 327.425446,302.660828 
	C327.647400,306.479095 327.716034,310.629120 327.673096,315.186096 
z"/>
<path fill="#CFA158" opacity="1.000000" stroke="none" 
	d="
M242.894623,117.307465 
	C244.523193,118.945480 244.859085,121.293686 245.189484,124.000565 
	C243.693817,122.352997 243.290009,119.968407 242.894623,117.307465 
z"/>
<path fill="#CFA158" opacity="1.000000" stroke="none" 
	d="
M260.192627,340.602539 
	C257.616577,340.362152 257.559448,338.063354 257.743805,336.393646 
	C257.952576,334.502960 259.151550,335.292603 260.037842,336.670441 
	C260.215363,338.010437 260.243103,339.106750 260.192627,340.602539 
z"/>
<path fill="#BB6533" opacity="1.000000" stroke="none" 
	d="
M352.407288,167.893112 
	C352.691895,169.700287 352.072937,171.453003 350.375427,173.002808 
	C350.796112,171.437531 351.488159,169.767166 352.407288,167.893112 
z"/>
<path fill="#BB6533" opacity="1.000000" stroke="none" 
	d="
M283.159668,344.534546 
	C283.011169,343.191742 282.971771,341.964508 282.990173,340.369812 
	C284.343170,341.493591 284.273712,343.049652 283.159668,344.534546 
z"/>
<path fill="#BB6533" opacity="1.000000" stroke="none" 
	d="
M253.516968,323.317261 
	C253.253174,322.504425 253.193176,321.792236 253.089264,320.730560 
	C255.029251,321.002197 255.805710,321.891907 253.516968,323.317261 
z"/>
<path fill="#BB6533" opacity="1.000000" stroke="none" 
	d="
M343.425659,321.235535 
	C343.915039,321.694000 344.218933,322.154785 344.589417,322.883484 
	C343.104095,323.312592 342.601624,322.697327 343.425659,321.235535 
z"/>
<path fill="#BB6533" opacity="1.000000" stroke="none" 
	d="
M363.540405,317.207703 
	C362.667877,315.783875 363.003174,313.950409 363.248413,311.881378 
	C363.475616,313.374542 363.573944,315.114960 363.540405,317.207703 
z"/>
<path fill="#BB6533" opacity="1.000000" stroke="none" 
	d="
M322.524933,309.486450 
	C322.747986,311.085693 322.838287,312.998322 322.795898,315.220032 
	C322.572876,313.619385 322.482513,311.709595 322.524933,309.486450 
z"/>
<path fill="#BB6533" opacity="1.000000" stroke="none" 
	d="
M395.863190,335.998962 
	C396.044739,336.630280 396.064484,337.488617 396.053131,338.681030 
	C395.840240,339.423157 395.604523,339.797150 395.023651,340.299347 
	C394.732391,340.461517 394.545471,340.355011 394.452576,340.300720 
	C394.806915,338.906311 395.254181,337.566132 395.863190,335.998962 
z"/>
<path fill="#CFA158" opacity="1.000000" stroke="none" 
	d="
M368.414246,116.725670 
	C367.471222,116.244148 366.377472,115.513435 365.150055,114.528244 
	C366.098755,115.007996 367.181152,115.742233 368.414246,116.725670 
z"/>
<path fill="#050402" opacity="1.000000" stroke="none" 
	d="
M368.936340,338.185120 
	C369.263824,339.173737 369.383087,340.338806 369.491150,341.804596 
	C367.928802,341.118591 367.667358,339.872833 368.936340,338.185120 
z"/>
<path fill="#BB6533" opacity="1.000000" stroke="none" 
	d="
M348.783752,309.545410 
	C347.856964,308.926849 347.757355,308.037201 348.401398,307.518555 
	C349.263824,306.823975 349.771423,307.618713 350.252197,308.640808 
	C350.351074,308.935822 350.231873,309.269745 350.151062,309.427032 
	C349.782684,309.535034 349.495148,309.485779 348.783752,309.545410 
z"/>
<path fill="#BB6533" opacity="1.000000" stroke="none" 
	d="
M348.344513,323.346313 
	C348.525269,322.863129 348.814148,322.524506 349.333191,322.164276 
	C350.264008,323.474335 349.101959,323.271362 348.344513,323.346313 
z"/>
<path fill="#BB6533" opacity="1.000000" stroke="none" 
	d="
M355.819214,308.341675 
	C354.885376,308.283813 354.501953,307.511719 354.211792,306.405273 
	C354.751740,306.791901 355.285400,307.440094 355.819214,308.341675 
z"/>
<path fill="#BB6533" opacity="1.000000" stroke="none" 
	d="
M276.592621,195.452133 
	C275.562531,196.330093 274.072266,196.146225 272.290680,195.724518 
	C273.400787,195.486221 274.796600,195.400269 276.592621,195.452133 
z"/>
<path fill="#BB6533" opacity="1.000000" stroke="none" 
	d="
M468.187500,344.595825 
	C467.866547,344.272003 467.834747,343.967316 468.001404,343.434509 
	C469.286987,343.470062 468.939362,344.026031 468.187500,344.595825 
z"/>
<path fill="#BB6533" opacity="1.000000" stroke="none" 
	d="
M460.574890,344.282959 
	C461.292999,344.277832 461.934235,344.497437 462.803375,344.839935 
	C462.059113,345.522095 461.187500,345.521729 460.574890,344.282959 
z"/>
<path fill="#BB6533" opacity="1.000000" stroke="none" 
	d="
M278.746216,334.786987 
	C278.481873,334.937073 278.137634,334.996399 277.536316,335.001526 
	C277.741608,334.863586 278.203979,334.779938 278.746216,334.786987 
z"/>
<path fill="#BB6533" opacity="1.000000" stroke="none" 
	d="
M252.664261,195.432129 
	C251.800003,196.190643 250.507584,196.104996 248.827881,195.768005 
	C249.733261,195.524094 251.015472,195.410843 252.664261,195.432129 
z"/>
<path fill="#BB6533" opacity="1.000000" stroke="none" 
	d="
M246.399719,195.428970 
	C245.634796,195.692139 244.661896,195.792984 243.209045,195.797882 
	C243.767685,194.637238 244.989120,195.026749 246.399719,195.428970 
z"/>
<path fill="#BB6533" opacity="1.000000" stroke="none" 
	d="
M328.262695,299.512329 
	C328.166962,299.509338 328.024231,299.050568 328.089935,298.950928 
	C328.273621,298.963440 328.425385,299.058380 328.495026,299.195129 
	C328.528839,299.261475 328.408813,299.406158 328.262695,299.512329 
z"/>
<path fill="#BB6533" opacity="1.000000" stroke="none" 
	d="
M354.087097,315.352539 
	C354.488525,315.593475 354.836060,315.999359 355.154633,316.575134 
	C354.761536,316.335846 354.397339,315.926636 354.087097,315.352539 
z"/>
<path fill="#BB6533" opacity="1.000000" stroke="none" 
	d="
M251.315002,317.619446 
	C251.088394,317.193054 250.996948,316.866699 250.974243,316.378448 
	C251.178711,316.717499 251.314438,317.218506 251.315002,317.619446 
z"/>
<path fill="#050402" opacity="1.000000" stroke="none" 
	d="
M375.886230,333.836487 
	C375.550110,334.018341 375.103485,334.062195 374.325989,334.032166 
	C374.508698,333.323853 375.081696,333.096466 375.886230,333.836487 
z"/>
<path fill="#BB6533" opacity="1.000000" stroke="none" 
	d="
M346.837769,178.435501 
	C346.601685,178.802795 346.151459,179.318146 345.457397,179.928299 
	C345.683594,179.543259 346.153595,179.063416 346.837769,178.435501 
z"/>
<path fill="#BB6533" opacity="1.000000" stroke="none" 
	d="
M275.648621,344.935974 
	C275.948669,344.764496 276.325500,344.776672 276.961182,344.917114 
	C276.721832,345.070129 276.223663,345.094879 275.648621,344.935974 
z"/>
<path fill="#BB6533" opacity="1.000000" stroke="none" 
	d="
M241.695038,199.054367 
	C241.895294,199.374283 241.960770,199.910645 241.927216,200.844330 
	C241.738876,200.584717 241.649567,199.927765 241.695038,199.054367 
z"/>
<path fill="#BB6533" opacity="1.000000" stroke="none" 
	d="
M280.686279,195.456161 
	C280.463684,195.672958 279.914551,195.767075 279.189575,195.726654 
	C279.462433,195.505905 279.911102,195.419678 280.686279,195.456161 
z"/>
<path fill="#BB6533" opacity="1.000000" stroke="none" 
	d="
M241.684174,204.866425 
	C241.900345,205.225159 241.968765,205.835983 241.937744,206.901001 
	C241.737671,206.609634 241.637039,205.864075 241.684174,204.866425 
z"/>
<path fill="#BB6533" opacity="1.000000" stroke="none" 
	d="
M315.300293,195.263077 
	C315.219513,195.374222 315.077118,195.460083 315.050720,195.422043 
	C314.952728,195.321609 314.881134,195.259201 314.809540,195.196808 
	C315.000061,195.181854 315.190582,195.166885 315.300293,195.263077 
z"/>
<path fill="#050402" opacity="1.000000" stroke="none" 
	d="
M381.542725,340.586609 
	C381.277222,340.411499 381.088776,340.042572 380.846222,339.364716 
	C381.067993,339.501465 381.343872,339.947144 381.542725,340.586609 
z"/>
<path fill="#050402" opacity="1.000000" stroke="none" 
	d="
M370.918335,335.161377 
	C370.858704,335.440979 370.597534,335.833344 370.101318,336.284821 
	C370.149780,335.987335 370.433258,335.630707 370.918335,335.161377 
z"/>
<path fill="#BB6533" opacity="1.000000" stroke="none" 
	d="
M325.702301,297.659790 
	C325.479645,297.821777 325.116333,297.877289 324.490479,297.854858 
	C324.672516,297.702362 325.117096,297.627838 325.702301,297.659790 
z"/>
<path fill="#BB6533" opacity="1.000000" stroke="none" 
	d="
M347.887878,176.344391 
	C347.958557,176.678513 347.855194,177.212616 347.520081,177.899002 
	C347.430145,177.548996 347.571991,177.046692 347.887878,176.344391 
z"/>
<path fill="#BB6533" opacity="1.000000" stroke="none" 
	d="
M280.093506,345.048828 
	C280.013885,344.913025 280.476990,344.789276 280.709625,344.851379 
	C280.942261,344.913513 280.631470,345.217865 280.631470,345.217865 
	C280.631470,345.217865 280.173126,345.184662 280.093506,345.048828 
z"/>
<path fill="#BB6533" opacity="1.000000" stroke="none" 
	d="
M460.373535,341.249390 
	C460.757202,341.186157 460.847321,341.443329 460.601379,341.871765 
	C460.418335,341.806519 460.356567,341.648773 460.373535,341.249390 
z"/>
<path fill="#050402" opacity="1.000000" stroke="none" 
	d="
M380.382996,345.518005 
	C380.267029,345.520172 380.542236,345.173584 380.745544,345.088257 
	C380.879761,345.248566 380.729797,345.419525 380.382996,345.518005 
z"/>
<path fill="#050402" opacity="1.000000" stroke="none" 
	d="
M381.439240,343.808563 
	C381.376221,343.901093 381.246246,343.493073 381.317566,343.291565 
	C381.541290,343.280334 381.579071,343.488983 381.439240,343.808563 
z"/>
<path fill="#BB6533" opacity="1.000000" stroke="none" 
	d="
M348.932312,174.871887 
	C348.883484,174.847626 348.967346,174.733124 349.002075,174.717178 
	C349.036804,174.701233 348.981171,174.896133 348.932312,174.871887 
z"/>
<path fill="#CFA158" opacity="1.000000" stroke="none" 
	d="
M376.765381,124.246986 
	C376.595612,124.390053 376.666840,124.344635 376.634735,124.311218 
	C377.034058,124.832863 377.152344,124.789177 376.765381,124.246986 
z"/>
<path fill="#BB6533" opacity="1.000000" stroke="none" 
	d="
M327.942474,318.413940 
	C327.841217,318.364258 327.895721,318.406921 327.866852,318.419922 
	C327.837982,318.432953 328.158020,318.495819 328.158020,318.495819 
	C328.158020,318.495819 328.043732,318.463593 327.942474,318.413940 
z"/>
<path fill="#BB6533" opacity="1.000000" stroke="none" 
	d="
M310.601196,334.612274 
	C310.665314,334.716614 310.490601,334.954315 310.425812,334.896759 
	C310.361023,334.839203 310.537109,334.507935 310.601196,334.612274 
z"/>
<path fill="#BB6533" opacity="1.000000" stroke="none" 
	d="
M344.623474,317.356140 
	C345.039459,317.257019 345.130066,317.457489 344.872925,317.828735 
	C344.746124,317.877502 344.519043,317.533722 344.623474,317.356140 
z"/>
<path fill="#050402" opacity="1.000000" stroke="none" 
	d="
M371.779053,334.589539 
	C371.805450,334.748047 371.693634,334.883301 371.322083,335.061188 
	C371.151123,334.804504 371.343964,334.625366 371.779053,334.589539 
z"/>
<path fill="#050402" opacity="1.000000" stroke="none" 
	d="
M378.898376,334.981506 
	C378.781433,335.058167 378.613770,335.002380 378.291779,334.731934 
	C378.444611,334.480530 378.681366,334.591125 378.898376,334.981506 
z"/>
<path fill="#BB6533" opacity="1.000000" stroke="none" 
	d="
M399.725037,334.776611 
	C399.678802,334.913635 399.361450,334.948792 399.261414,334.828674 
	C399.161407,334.708527 399.414398,334.445862 399.414398,334.445862 
	C399.414398,334.445862 399.771301,334.639587 399.725037,334.776611 
z"/>
<path fill="#BB6533" opacity="1.000000" stroke="none" 
	d="
M244.522568,313.075897 
	C244.513626,312.943054 244.939301,313.067505 244.970459,313.179840 
	C245.001633,313.292175 244.746063,313.365540 244.746063,313.365540 
	C244.746063,313.365540 244.531509,313.208740 244.522568,313.075897 
z"/>
<path fill="#BB6533" opacity="1.000000" stroke="none" 
	d="
M460.810394,334.916870 
	C460.773621,334.953827 460.822083,334.887665 460.842529,334.882202 
	C460.862946,334.876740 460.847168,334.879944 460.810394,334.916870 
z"/>
<path fill="#CFA158" opacity="1.000000" stroke="none" 
	d="
M370.751953,118.815041 
	C370.550720,118.960434 370.324188,118.826035 370.078003,118.405350 
	C370.267273,118.284805 370.490021,118.423538 370.751953,118.815041 
z"/>
<path fill="#BB6533" opacity="1.000000" stroke="none" 
	d="
M322.558990,304.461426 
	C322.671204,304.393982 322.831543,304.781403 322.747955,304.853577 
	C322.442291,304.875122 322.369781,304.742828 322.558990,304.461426 
z"/>
<path fill="#BB6533" opacity="1.000000" stroke="none" 
	d="
M344.574402,303.155945 
	C344.709961,303.126770 344.852570,303.456573 344.775146,303.612579 
	C344.697723,303.768585 344.397491,303.585571 344.397491,303.585571 
	C344.397491,303.585571 344.438843,303.185089 344.574402,303.155945 
z"/>
<path fill="#BB6533" opacity="1.000000" stroke="none" 
	d="
M321.718201,297.815369 
	C321.680908,297.881531 321.628632,297.950623 321.598633,297.919647 
	C321.568665,297.888672 321.755524,297.749207 321.718201,297.815369 
z"/>
<path fill="#CFA158" opacity="1.000000" stroke="none" 
	d="
M362.894592,112.818634 
	C362.726685,112.971260 362.436340,112.850487 362.067993,112.405609 
	C362.252289,112.269249 362.513031,112.423828 362.894592,112.818634 
z"/>
<path fill="#BB6533" opacity="1.000000" stroke="none" 
	d="
M241.739105,223.806656 
	C241.933228,223.902878 241.975830,224.195877 241.960648,224.932281 
	C241.797760,224.918259 241.692673,224.460861 241.739105,223.806656 
z"/>
<path fill="#BB6533" opacity="1.000000" stroke="none" 
	d="
M245.416595,207.697327 
	C245.098831,207.640823 245.033524,207.357025 245.196426,206.840576 
	C245.537445,206.879562 245.618912,207.166931 245.416595,207.697327 
z"/>
<path fill="#BB6533" opacity="1.000000" stroke="none" 
	d="
M329.551666,336.095337 
	C329.854614,336.130585 329.911591,336.327606 329.762634,336.698395 
	C329.437500,336.695831 329.353821,336.490814 329.551666,336.095337 
z"/>
<path fill="#050402" opacity="1.000000" stroke="none" 
	d="
M328.737671,112.158798 
	C338.986267,117.303749 347.133575,124.156143 351.599030,135.017426 
	C352.210602,136.684494 352.842072,138.020874 353.663971,139.674316 
	C355.426971,150.043732 355.376038,150.018311 344.786072,149.982986 
	C326.345276,149.921509 307.903229,149.861938 289.463379,150.010635 
	C274.786530,150.128967 263.135315,144.313644 254.251556,132.789474 
	C252.767303,130.864090 250.666016,129.381210 249.627167,126.878784 
	C247.808960,122.490898 246.436615,118.183975 245.904053,113.496468 
	C245.437653,109.391365 246.796616,108.518517 250.668121,108.877151 
	C251.463089,108.869164 251.882645,108.901588 252.618164,108.837509 
	C272.663269,108.851570 292.395966,108.916611 312.595337,108.902794 
	C313.829132,108.969292 314.603821,109.000572 315.673157,108.966782 
	C316.360229,109.060661 316.756195,109.165985 317.457611,109.217499 
	C319.282166,109.575554 320.804901,109.968796 322.722260,110.094505 
	C323.564056,110.351646 324.070129,110.571709 324.989624,110.835670 
	C326.170135,111.868286 327.417389,111.658791 328.737671,112.158798 
z"/>
<path fill="#050402" opacity="1.000000" stroke="none" 
	d="
M357.186829,143.105347 
	C356.369659,131.338028 350.451874,122.619110 341.564117,115.678009 
	C339.246643,113.868111 336.527252,112.572815 333.670593,110.933319 
	C332.709961,110.674530 332.442505,110.275032 332.776031,109.277519 
	C344.113129,108.509811 354.635620,110.496849 363.770813,117.186272 
	C370.495392,122.110474 375.667480,128.411438 378.893555,136.588455 
	C388.136841,166.212067 371.136597,192.157135 340.423035,195.290756 
	C338.739288,195.596207 337.439362,195.357361 335.792053,195.677399 
	C335.294861,195.476776 335.126129,195.400055 334.775055,195.526794 
	C333.929565,195.764740 333.498596,195.482651 333.395935,194.300690 
	C340.887543,190.280594 346.824371,185.050247 351.085876,177.557220 
	C351.366455,176.803116 351.688263,176.527374 352.372894,176.171692 
	C358.062958,166.496323 360.527588,156.463608 358.539154,145.208801 
	C357.854614,144.729996 357.483612,144.477386 357.098450,143.757019 
	C356.991608,143.425354 357.265167,143.248215 357.186829,143.105347 
z"/>
<path fill="#BB6533" opacity="1.000000" stroke="none" 
	d="
M333.126038,193.835754 
	C333.682434,194.245224 333.929535,194.648224 334.413025,195.328339 
	C333.454590,196.008667 331.943146,196.653427 331.206757,195.412262 
	C330.462738,194.158157 332.025818,194.140793 333.126038,193.835754 
z"/>
<path fill="#BB6533" opacity="1.000000" stroke="none" 
	d="
M335.793579,195.795074 
	C336.690247,195.524231 337.973663,195.370178 339.633911,195.316254 
	C338.816559,196.220169 337.502625,196.098389 335.793579,195.795074 
z"/>
<path fill="#BB6533" opacity="1.000000" stroke="none" 
	d="
M352.318176,175.948456 
	C352.261139,176.261597 351.927551,176.604370 351.379974,177.087433 
	C351.457886,176.811172 351.749756,176.394623 352.318176,175.948456 
z"/>
<path fill="#DABD67" opacity="1.000000" stroke="none" 
	d="
M357.200684,143.675415 
	C357.386993,143.670822 357.782379,143.916290 358.248047,144.504120 
	C358.015472,144.539490 357.712616,144.232483 357.200684,143.675415 
z"/>
<path fill="#CFA158" opacity="1.000000" stroke="none" 
	d="
M322.816864,109.894653 
	C321.482697,109.932999 319.907440,109.734398 318.047607,109.349747 
	C319.409821,108.913834 321.046936,108.758102 322.816864,109.894653 
z"/>
<path fill="#CFA158" opacity="1.000000" stroke="none" 
	d="
M332.803955,108.749718 
	C333.074921,109.350510 333.144287,109.772919 333.281189,110.510391 
	C332.353577,110.505531 330.971436,110.437973 330.913208,109.145485 
	C330.865356,108.082779 331.853149,108.267685 332.803955,108.749718 
z"/>
<path fill="#CFA158" opacity="1.000000" stroke="none" 
	d="
M315.763611,108.769501 
	C315.140564,108.999603 314.316864,109.043877 313.277618,108.956039 
	C313.839539,108.159309 314.671661,108.063339 315.763611,108.769501 
z"/>
<path fill="#CFA158" opacity="1.000000" stroke="none" 
	d="
M328.891663,112.000793 
	C327.972717,111.922630 326.880157,111.612366 325.595337,111.090843 
	C326.606903,110.807426 327.757629,110.933304 328.891663,112.000793 
z"/>
<path fill="#CFA158" opacity="1.000000" stroke="none" 
	d="
M252.769821,108.639778 
	C252.411987,108.872398 251.893387,108.958267 251.210907,108.917664 
	C251.494614,108.308792 252.008942,108.176270 252.769821,108.639778 
z"/>
<path fill="#CFA158" opacity="1.000000" stroke="none" 
	d="
M351.621826,135.349136 
	C351.579102,135.348114 351.841675,135.438721 351.737854,135.469971 
	C351.634003,135.501205 351.664551,135.350159 351.621826,135.349136 
z"/>
<path fill="#DABD67" opacity="1.000000" stroke="none" 
	d="
M421.504608,310.513062 
	C421.479645,310.524170 421.529572,310.501953 421.504608,310.513062 
z"/>
<path fill="#050402" opacity="1.000000" stroke="none" 
	d="
M127.693283,305.535614 
	C127.942322,303.984833 126.987778,302.297272 128.822952,301.860565 
	C130.092758,301.558441 130.970276,302.569763 131.440979,303.628845 
	C132.042908,304.983185 131.581451,306.224548 130.388229,307.050598 
	C129.019638,307.998077 127.943863,307.893738 127.693283,305.535614 
z"/>
<path fill="#DABD67" opacity="1.000000" stroke="none" 
	d="
M164.651276,307.424805 
	C161.423859,311.347076 155.156601,310.829224 153.039825,316.275146 
	C153.039825,312.514557 152.942551,308.750427 153.078964,304.994812 
	C153.152206,302.978455 152.061386,300.126465 154.813080,299.339905 
	C157.807129,298.484070 161.129105,298.219360 163.868332,300.442932 
	C166.167770,302.309509 166.330795,304.632721 164.651276,307.424805 
z"/>
<path fill="#010000" opacity="1.000000" stroke="none" 
	d="
M441.667419,338.811798 
	C444.048431,337.061890 445.863647,337.780701 446.456238,339.958740 
	C446.944794,341.754517 444.501434,342.430847 443.558746,342.575073 
	C441.310944,342.918884 441.282776,340.952728 441.667419,338.811798 
z"/>
<path fill="#050402" opacity="1.000000" stroke="none" 
	d="
M142.692596,340.186584 
	C142.002365,341.723999 141.164658,343.169098 139.861923,341.476410 
	C139.114792,340.505646 139.032761,338.527832 140.231827,337.842957 
	C141.900604,336.889862 142.361023,338.544617 142.692596,340.186584 
z"/>
<path fill="#CFA158" opacity="1.000000" stroke="none" 
	d="
M313.078796,343.925293 
	C313.487579,342.613861 314.455231,343.329224 315.373962,343.468140 
	C314.817413,344.321198 313.990479,343.868073 313.078796,343.925293 
z"/>
<path fill="#CFA158" opacity="1.000000" stroke="none" 
	d="
M394.665100,340.768433 
	C395.026947,340.071747 395.321503,339.681976 395.819031,339.153687 
	C397.507690,339.466980 399.203278,338.728546 400.866089,339.965485 
	C400.887939,341.263428 404.163971,342.691528 400.627991,343.522186 
	C399.065521,342.620575 397.738403,342.679535 396.303864,343.159973 
	C394.078796,343.905151 394.450775,342.361450 394.665100,340.768433 
z"/>
<path fill="#050402" opacity="1.000000" stroke="none" 
	d="
M161.030823,302.880554 
	C162.302765,305.645020 160.956512,306.886383 158.854080,307.572449 
	C157.932709,307.873169 156.565765,307.829956 156.383499,306.721436 
	C156.126450,305.158264 155.842209,303.081146 156.630341,301.989777 
	C157.729706,300.467438 159.521072,301.429413 161.030823,302.880554 
z"/>
</svg>